# xmcd
#
# Track frame offsets: 
#        150
#        13218
#        24548
#        37449
#        52473
#        62429
#        75709
#        88125
#        98991
#        110389
#        123175
#        134645
#        146455
#        161885
#        174007
#        188904
#        198654
#        209478
#
# Disc length: 2920 seconds
#
# Revision: 2
# Processed by: cddbd v1.5.2PL0 Copyright (c) Steve Scherf et al.
# Submitted via: ExactAudioCopy v1.0b3
#
DISCID=0f0b6612
DTITLE=Parton, Dolly and Kenny Rogers - Honkytonk Angels
DYEAR=1900
DGENRE=Country
TTITLE0=Rogers, Kenny - Ruby (Don't Take Your Love To Town)
TTITLE1=Parton, Dolly - Makin' Believe
TTITLE2=Rogers, Kenny - Reuben James
TTITLE3=Rogers, Kenny - Just Dropped In (To See What Condition My Cond
TTITLE3=ition Was In)
TTITLE4=Parton, Dolly - Release Me
TTITLE5=Rogers, Kenny - Shine On Ruby Mountain
TTITLE6=Rogers, Kenny - Elvira
TTITLE7=Parton, Dolly - It Wasn't God Who Made Honkytonk Angels
TTITLE8=Rogers, Kenny - Me And Bobby McGee
TTITLE9=Parton, Dolly - Little Blossom
TTITLE10=Rogers, Kenny - Poem For A Little Lady
TTITLE11=Parton, Dolly - Letter To Heaven
TTITLE12=Rogers, Kenny - Tulsa Turnaround
TTITLE13=Parton, Dolly - Two Little Orphans
TTITLE14=Rogers, Kenny - For The Good Times
TTITLE15=Parton, Dolly - Girl Left Alone
TTITLE16=Rogers, Kenny - Ticket To Nowhere
TTITLE17=Rogers, Kenny - Where Does Rosie Go
EXTD=
EXTT0=
EXTT1=
EXTT2=
EXTT3=
EXTT4=
EXTT5=
EXTT6=
EXTT7=
EXTT8=
EXTT9=
EXTT10=
EXTT11=
EXTT12=
EXTT13=
EXTT14=
EXTT15=
EXTT16=
EXTT17=
PLAYORDER=
